{"title":"Disclosure ft. Lorde - Magnets (2015.House)","uid":12526419,"size":78725625,"categoryP":"video","categoryS":"music_videos","magnet":"?xt=urn:btih:a32079877ca2c899fec63c2a4a0568d19822a6fb&amp;dn=Disclosure+ft.+Lorde+-+Magnets+%282015.House%29&amp;tr=udp%3A%2F%2Ftracker.leechers-paradise.org%3A6969&amp;tr=udp%3A%2F%2Fzer0day.ch%3A1337&amp;tr=udp%3A%2F%2Fopen.demonii.com%3A1337&amp;tr=udp%3A%2F%2Ftracker.coppersurfer.tk%3A6969&amp;tr=udp%3A%2F%2Fexodus.desync.com%3A6969","seeders":1,"leechers":0,"uploader":"MeRaDil","files":1,"time":1444067871,"description":"DISCLOSURE ft.LORDE - MAGNETS\r\n\r\n \nhttp://gifyu.com/images/disclosure-01.png\r\n \nhttp://gifyu.com/images/disclosure-02.png\r\n \nhttp://gifyu.com/images/disclosure-03.png\r\n\r\n\r\nMEDIA INFO\r\nGeneral\r\nDisclosure ft. Lorde - Magnets\r\nFormat                                   : MPEG-4\r\nFormat profile                           : Base Media\r\nCodec ID                                 : isom\r\nFile size                                : 75.1 MiB\r\nDuration                                 : 3mn 34s\r\nOverall bit rate                         : 2 934 Kbps\r\nMusicVid name                            : Magnets\r\nAlbum                                    : Caracal\r\nPerformer                                : Disclosure ft. Lorde\r\nGenre                                    : Deep House/UK Garage\r\nContentType                              : Music Video\r\nRecorded date                            : 2015\r\nMake                                     : MeRaDil\r\nRelease date                             : UK/New Zealand - september 29 - 2015\r\n\r\nVideo\r\nID                                       : 1\r\nFormat                                   : AVC\r\nFormat/Info                              : Advanced Video Codec\r\nFormat profile                           :   \r\nFormat settings, CABAC                   : Yes\r\nFormat settings, ReFrames                : 2 frames\r\nCodec ID                                 : avc1\r\nCodec ID/Info                            : Advanced Video Coding\r\nDuration                                 : 3mn 34s\r\nBit rate                                 : 2 657 Kbps\r\nWidth                                    : 1 920 pixels\r\nHeight                                   : 1 080 pixels\r\nDisplay aspect ratio                     : 16:9\r\nFrame rate mode                          : Constant\r\nFrame rate                               : 25.000 fps\r\nColor space                              : YUV\r\nChroma subsampling                       : 4:2:0\r\nBit depth                                : 8 bits\r\nScan type                                : Progressive\r\nBits/(Pixel*Frame)                       : 0.051\r\nStream size                              : 68.0 MiB (91%)\r\n\r\nAudio\r\nID                                       : 2\r\nFormat                                   : AAC\r\nFormat/Info                              : Advanced Audio Codec\r\nFormat profile                           : LC\r\nCodec ID                                 : 40\r\nDuration                                 : 3mn 34s\r\nBit rate mode                            : Constant\r\nBit rate                                 : 256 Kbps\r\nChannel(s)                               : 2 channels\r\nChannel positions                        : Front: L R\r\nSampling rate                            : 44.1 KHz\r\nCompression mode                         : Lossy\r\nStream size                              : 6.55 MiB (9%)\r\n\r\nDisclosure * Lorde * Deep House * Promo","torrent":{"xt":"urn:btih:a32079877ca2c899fec63c2a4a0568d19822a6fb","amp;dn":"Disclosure+ft.+Lorde+-+Magnets+%282015.House%29","amp;tr":["udp%3A%2F%2Ftracker.leechers-paradise.org%3A6969","udp%3A%2F%2Fzer0day.ch%3A1337","udp%3A%2F%2Fopen.demonii.com%3A1337","udp%3A%2F%2Ftracker.coppersurfer.tk%3A6969","udp%3A%2F%2Fexodus.desync.com%3A6969"],"infoHash":"a32079877ca2c899fec63c2a4a0568d19822a6fb","infoHashBuffer":{"type":"Buffer","data":[163,32,121,135,124,162,200,153,254,198,60,42,74,5,104,209,152,34,166,251]},"announce":[],"urlList":[]}}